<svg id="Layer_1" data-name="Layer 1" xmlns="http://www.w3.org/2000/svg" viewBox="0 0 565.77 288"><defs><style>.cls-1{fill:#ff5d55;}</style></defs><title>coin</title><path class="cls-1" d="M562.27,135.27,430.62,3.62A12.35,12.35,0,0,0,421.88,0H144.12a12.35,12.35,0,0,0-8.73,3.62L3.73,135.27a12.35,12.35,0,0,0,0,17.46L135.38,284.38a12.35,12.35,0,0,0,8.73,3.62H421.88a12.35,12.35,0,0,0,8.73-3.62L562.27,152.73A12.35,12.35,0,0,0,562.27,135.27ZM273.65,211a2.69,2.69,0,0,1-2.69,2.69H237.43a2.69,2.69,0,0,1-2.69-2.69v-46.5a2.69,2.69,0,0,0-2.69-2.69H172.59a2.69,2.69,0,0,0-2.69,2.69v48.07a2.69,2.69,0,0,1-.79,1.9L135.59,248a2.69,2.69,0,0,1-4.59-1.9V73.76a2.69,2.69,0,0,1,2.69-2.69h33.53a2.69,2.69,0,0,1,2.69,2.69v46.5a2.69,2.69,0,0,0,2.69,2.69h59.47a2.69,2.69,0,0,0,2.69-2.69V72.18a2.69,2.69,0,0,1,.79-1.9l33.53-33.53a2.69,2.69,0,0,1,4.59,1.9ZM435.56,107.15a2.69,2.69,0,0,1-2.69,2.69H334.57a2.69,2.69,0,0,0-2.69,2.69V172a2.69,2.69,0,0,0,2.69,2.69h98.31a2.69,2.69,0,0,1,2.69,2.69v33.51a2.69,2.69,0,0,1-2.69,2.69H295.69a2.69,2.69,0,0,1-2.69-2.69V73.65A2.69,2.69,0,0,1,295.69,71H432.87a2.69,2.69,0,0,1,2.69,2.69Z" transform="translate(-0.12)"/></svg>