<?xml version="1.0" encoding="UTF-8" standalone="no"?>
<svg
   xmlns:dc="http://purl.org/dc/elements/1.1/"
   xmlns:cc="http://creativecommons.org/ns#"
   xmlns:rdf="http://www.w3.org/1999/02/22-rdf-syntax-ns#"
   xmlns:svg="http://www.w3.org/2000/svg"
   xmlns="http://www.w3.org/2000/svg"
   xmlns:sodipodi="http://sodipodi.sourceforge.net/DTD/sodipodi-0.dtd"
   xmlns:inkscape="http://www.inkscape.org/namespaces/inkscape"
   width="3.03334in"
   height="0.776668in"
   viewBox="0 0 910 233"
   version="1.1"
   id="svg825"
   sodipodi:docname="heroes2.svg"
   inkscape:version="0.92.2 (5c3e80d, 2017-08-06)">
  <metadata
     id="metadata831">
    <rdf:RDF>
      <cc:Work
         rdf:about="">
        <dc:format>image/svg+xml</dc:format>
        <dc:type
           rdf:resource="http://purl.org/dc/dcmitype/StillImage" />
      </cc:Work>
    </rdf:RDF>
  </metadata>
  <defs
     id="defs829" />
  <sodipodi:namedview
     pagecolor="#ffffff"
     bordercolor="#666666"
     borderopacity="1"
     objecttolerance="10"
     gridtolerance="10"
     guidetolerance="10"
     inkscape:pageopacity="0"
     inkscape:pageshadow="2"
     inkscape:window-width="1920"
     inkscape:window-height="1018"
     id="namedview827"
     showgrid="false"
     inkscape:zoom="4.70466"
     inkscape:cx="145.60032"
     inkscape:cy="37.280065"
     inkscape:window-x="-8"
     inkscape:window-y="-8"
     inkscape:window-maximized="1"
     inkscape:current-layer="svg825" />
  <path
     id="Working Path"
     fill="none"
     stroke="black"
     stroke-width="1"
     d="M 143.00,183.00            C 130.00,183.00 117.00,183.00 104.00,183.00              104.00,165.67 104.00,148.33 104.00,131.00              82.34,131.00 60.66,131.00 39.00,131.00              39.00,148.66 39.00,166.34 39.00,184.00              26.00,196.67 13.00,209.33 0.00,222.00              0.00,161.34 0.00,100.66 0.00,40.00              13.00,40.00 26.00,40.00 39.00,40.00              39.00,57.33 39.00,74.67 39.00,92.00              60.66,92.00 82.34,92.00 104.00,92.00              104.00,74.34 104.00,56.66 104.00,39.00              117.00,26.33 130.00,13.67 143.00,1.00              143.00,61.66 143.00,122.34 143.00,183.00 Z            M 153.00,40.00            C 200.66,40.00 248.34,40.00 296.00,40.00              296.00,53.00 296.00,66.00 296.00,79.00              261.34,79.00 226.66,79.00 192.00,79.00              192.00,83.33 192.00,87.67 192.00,92.00              226.66,92.00 261.34,92.00 296.00,92.00              296.00,105.00 296.00,118.00 296.00,131.00              261.34,131.00 226.66,131.00 192.00,131.00              192.00,135.33 192.00,139.67 192.00,144.00              226.66,144.00 261.34,144.00 296.00,144.00              296.00,157.00 296.00,170.00 296.00,183.00              248.34,183.00 200.66,183.00 153.00,183.00              153.00,135.34 153.00,87.66 153.00,40.00 Z            M 306.00,40.00            C 353.66,40.00 401.34,40.00 449.00,40.00              449.00,70.33 449.00,100.67 449.00,131.00              438.33,131.00 427.67,131.00 417.00,131.00              427.67,142.00 438.33,153.00 449.00,164.00              449.00,170.67 449.00,177.33 449.00,184.00              436.33,184.00 423.67,184.00 411.00,184.00              393.34,166.34 375.66,148.66 358.00,131.00              353.67,131.00 349.33,131.00 345.00,131.00              345.00,148.33 345.00,165.67 345.00,183.00              332.00,183.00 319.00,183.00 306.00,183.00              306.00,152.67 306.00,122.33 306.00,92.00              340.66,92.00 375.34,92.00 410.00,92.00              410.00,87.67 410.00,83.33 410.00,79.00              375.34,79.00 340.66,79.00 306.00,79.00              306.00,66.00 306.00,53.00 306.00,40.00 Z            M 460.00,40.00            C 507.66,40.00 555.34,40.00 603.00,40.00              603.00,87.66 603.00,135.34 603.00,183.00              555.34,183.00 507.66,183.00 460.00,183.00              460.00,135.34 460.00,87.66 460.00,40.00 Z            M 613.00,40.00            C 660.66,40.00 708.34,40.00 756.00,40.00              756.00,53.00 756.00,66.00 756.00,79.00              721.34,79.00 686.66,79.00 652.00,79.00              652.00,83.33 652.00,87.67 652.00,92.00              686.66,92.00 721.34,92.00 756.00,92.00              756.00,105.00 756.00,118.00 756.00,131.00              721.34,131.00 686.66,131.00 652.00,131.00              652.00,135.33 652.00,139.67 652.00,144.00              686.66,144.00 721.34,144.00 756.00,144.00              756.00,157.00 756.00,170.00 756.00,183.00              708.34,183.00 660.66,183.00 613.00,183.00              613.00,135.34 613.00,87.66 613.00,40.00 Z            M 766.00,40.00            C 813.66,40.00 861.34,40.00 909.00,40.00              909.00,53.00 909.00,66.00 909.00,79.00              874.34,79.00 839.66,79.00 805.00,79.00              805.00,83.33 805.00,87.67 805.00,92.00              839.66,92.00 874.34,92.00 909.00,92.00              909.00,139.00 909.00,186.00 909.00,233.00              607.03,233.00 304.97,233.00 3.00,233.00              15.67,220.00 28.33,207.00 41.00,194.00              41.33,194.00 41.67,194.00 42.00,194.00              317.97,194.00 594.03,194.00 870.00,194.00              870.00,173.00 870.00,152.00 870.00,131.00              835.34,131.00 800.66,131.00 766.00,131.00              766.00,100.67 766.00,70.33 766.00,40.00 Z            M 499.00,79.00            C 499.00,100.66 499.00,122.34 499.00,144.00              520.66,144.00 542.34,144.00 564.00,144.00              564.00,122.34 564.00,100.66 564.00,79.00              542.34,79.00 520.66,79.00 499.00,79.00 Z"
     style="fill:#3b3b3b;stroke-width:0;stroke-miterlimit:4;stroke-dasharray:none;fill-opacity:1" />
</svg>
